<?xml version="1.0" encoding="utf-8"?>
<!-- Generator: Adobe Illustrator 22.0.1, SVG Export Plug-In . SVG Version: 6.00 Build 0)  -->
<svg version="1.1" xmlns="http://www.w3.org/2000/svg" xmlns:xlink="http://www.w3.org/1999/xlink" x="0px" y="0px"
	 viewBox="0 0 157.8 157.8" style="enable-background:new 0 0 157.8 157.8;" xml:space="preserve">
<style type="text/css">
	.st0{fill:#FFFFFF;}
</style>
<g id="background">
</g>
<g id="objects">
	<g>
		<g>
			<path class="st0" d="M112.9,157.8h-68C20.2,157.8,0,137.7,0,112.9v-68C0,20.2,20.2,0,44.9,0h68c24.8,0,44.9,20.2,44.9,44.9v68
				C157.8,137.7,137.7,157.8,112.9,157.8z M44.9,13.5c-17.3,0-31.4,14.1-31.4,31.4v68c0,17.3,14.1,31.4,31.4,31.4h68
				c17.3,0,31.4-14.1,31.4-31.4v-68c0-17.3-14.1-31.4-31.4-31.4H44.9z"/>
		</g>
		<g>
			<path class="st0" d="M78.9,119.3c-22.3,0-40.4-18.1-40.4-40.4c0-22.3,18.1-40.4,40.4-40.4s40.4,18.1,40.4,40.4
				C119.3,101.2,101.2,119.3,78.9,119.3z M78.9,52C64.1,52,52,64.1,52,78.9s12.1,26.9,26.9,26.9s26.9-12.1,26.9-26.9
				S93.7,52,78.9,52z"/>
		</g>
		<g>
			<path class="st0" d="M130.8,36.2c0,5.4-4.3,9.7-9.7,9.7c-5.4,0-9.7-4.3-9.7-9.7c0-5.4,4.3-9.7,9.7-9.7
				C126.4,26.5,130.8,30.8,130.8,36.2z"/>
		</g>
	</g>
</g>
</svg>
