<?xml version="1.0" encoding="utf-8"?>
<!-- Generator: Adobe Illustrator 22.0.1, SVG Export Plug-In . SVG Version: 6.00 Build 0)  -->
<svg version="1.1" id="Layer_1" xmlns="http://www.w3.org/2000/svg" xmlns:xlink="http://www.w3.org/1999/xlink" x="0px" y="0px"
	 viewBox="0 0 191 54.7" style="enable-background:new 0 0 191 54.7;" xml:space="preserve">
<style type="text/css">
	.st0{fill-rule:evenodd;clip-rule:evenodd;fill:#FF9233;}
	.st1{fill-rule:evenodd;clip-rule:evenodd;fill:#3BA2DC;}
	.st2{fill-rule:evenodd;clip-rule:evenodd;fill:#D21E5D;}
	.st3{fill-rule:evenodd;clip-rule:evenodd;fill:#8CC63E;}
	.st4{fill-rule:evenodd;clip-rule:evenodd;fill:#8EC63F;}
	.st5{fill:#15273F;}
</style>
<polygon class="st0" points="20.3,7.4 26.8,1 33.3,7.4 26.8,13.9 20.3,7.4 "/>
<polygon class="st1" points="0,27.8 6.5,21.3 13,27.8 6.5,34.3 0,27.8 "/>
<polygon class="st2" points="40.8,27.9 47.3,21.4 53.8,27.9 47.3,34.4 40.8,27.9 "/>
<polygon class="st3" points="20.4,48.2 26.9,41.7 33.4,48.2 26.9,54.7 20.4,48.2 "/>
<polygon class="st4" points="30,21.7 33.2,24.9 32.1,27.6 35.2,30.7 41.4,15.5 38.6,12.7 29.3,16.4 32.3,19.4 36.5,17.6 34.6,21.8 
	32.3,19.4 30,21.7 "/>
<polygon class="st2" points="17.1,23.6 15.3,21.7 22.1,23.1 22.2,23.1 20.7,16.2 26.9,22.3 29.8,19.3 19.1,8.7 16,11.8 17.6,18.5 
	10.9,16.9 7.8,20 14.2,26.5 17.1,23.6 "/>
<path class="st0" d="M23.2,33.4l-3.3-3.3l1.1-2.7l-3.2-3.2l-6.2,15.2l2.8,2.8l9.3-3.8l-2.9-2.9L23.2,33.4L23.2,33.4z M20.9,35.7
	l-4.2,1.8l1.8-4.2L20.9,35.7L20.9,35.7z"/>
<polygon class="st1" points="36.7,32 38.6,33.9 31.7,32.5 31.7,32.5 33.1,39.4 27,33.3 24,36.2 34.7,46.9 37.8,43.8 36.2,37.1 
	42.9,38.7 46.1,35.6 39.6,29.1 36.7,32 "/>
<path class="st5" d="M75,8.6c-0.4,0.7-0.9,1.7-1.6,3l-0.5,0.8l-0.5,0.8l-1,1.7c2.1-2.6,4.3-5.4,6.8-8.3l2.1-2.5
	c0.9-1,1.6-1.8,2.1-2.5v0c0-0.2,0.2-0.2,0.5-0.2c0.3,0.1,0.7,0.2,1.1,0.5c0.4,0.3,0.8,0.5,1,0.8c0.3,0.3,0.4,0.6,0.4,0.9
	c-0.1,0.8-0.8,2.4-2,4.6c-0.4,0.7-1,1.8-1.8,3.2l-0.9,1.7l-0.9,1.7c1-1.3,2.1-2.7,3.4-4.2c0.8-1,2-2.3,3.4-4l2.1-2.5
	c0.8-0.9,1.5-1.8,2.1-2.5v0c0-0.2,0.2-0.2,0.5-0.2c0.3,0.1,0.7,0.2,1.1,0.5c0.4,0.3,0.8,0.5,1,0.8c0.3,0.3,0.4,0.6,0.4,0.9
	c-0.1,1-1.6,3.9-4.4,8.9c-1.4,2.4-2.3,4.2-2.9,5.4c-0.9,1.9-1.4,3.2-1.6,4.1c0,0.2-0.1,0.3-0.4,0.3c-0.3,0-0.6-0.1-1-0.3
	c-0.9-0.4-1.4-0.9-1.4-1.3c0.1-1,1.1-3.2,2.8-6.7c0.3-0.6,0.7-1.3,1.1-2.2l0.6-1.1l0.6-1.1c0.9-1.8,1.6-3.2,2.1-4.2
	c-0.4,0.4-0.9,1.1-1.7,2c-1.2,1.4-2.1,2.5-2.8,3.4c-1.1,1.3-2,2.5-2.9,3.6c-2.2,2.7-3.9,5.2-5.2,7.3c0,0.1-0.1,0.3-0.1,0.4
	c0,0.2-0.1,0.3-0.4,0.3c-0.3,0-0.6-0.1-1-0.3c-0.9-0.4-1.4-0.9-1.4-1.3c0.1-1,1.1-3.2,2.8-6.7c0.3-0.6,0.7-1.3,1.1-2.2l0.6-1.1
	l0.6-1.1c0.9-1.8,1.6-3.2,2.1-4.2c-0.4,0.4-0.9,1.1-1.7,2c-1.2,1.4-2.1,2.6-2.9,3.4c-1.1,1.3-2.1,2.5-3,3.6c-2.2,2.8-4,5.3-5.3,7.4
	c0,0,0,0,0,0.1v0.1c0,0.5-0.4,0.5-1.4,0c-0.9-0.4-1.4-0.9-1.4-1.3c0.1-1,0.9-2.9,2.4-5.7c0.3-0.5,0.6-1.1,1-1.8l1-1.8
	c0.8-1.5,1.4-2.7,1.8-3.5l0.2-0.4c0.7-1.5,1.2-2.6,1.2-3.3c0-0.1,0-0.1,0.1-0.1c0.1-1-0.6-1.3-2.1-0.9c-1.7,0.7-3.2,1.7-4.5,3.1
	c-1.4,1.5-2.2,3-2.4,4.7V11l-0.1,0.1c-0.1,0.1-0.1,0.1-0.2,0.1c-1.8-1.3-2-2.9-0.5-4.8C64.6,4.4,66.9,3,70.1,2
	c2.6-0.9,4.5-0.7,5.6,0.4C76.9,3.5,76.7,5.6,75,8.6L75,8.6L75,8.6z M100,9.1c-1.5,0.1-3.2,1.7-5.3,5c-0.8,1.3-1.3,2.4-1.7,3.4
	c-0.4,1-0.5,1.6-0.2,1.6c0.6,0.1,1.5-0.6,2.7-2.2c1-1.3,1.9-2.9,2.8-4.5c-0.2-0.8-0.1-1.5,0.3-2.3c0.4-0.7,0.9-1,1.5-0.8
	c0.4,0.2,0.6,0.5,0.6,1c0,0.2-0.1,0.4-0.2,0.7c-0.1,0.2-0.1,0.4-0.2,0.6l-0.1,0.2v0l-0.2,0.6l0.1,0.1c0.4,0.2,0.8,0.3,1.3,0.2
	c0.4-0.1,0.8-0.3,1.3-0.5c0.2-0.1,0.4-0.2,0.6-0.4c0.4-0.2,0.7-0.2,1,0.2c0.2,0.4,0.2,0.7-0.2,1c-0.8,0.5-1.4,0.8-1.9,1
	c-0.8,0.3-1.5,0.3-2.1,0.1l-0.3-0.1l-0.3-0.1c-1,2-2.2,3.7-3.5,5.1c-1.6,1.7-3,2.4-4.1,2c-1.3-0.4-2.1-1.3-2.2-2.7
	c-0.1-1.2,0.2-2.6,1.1-4.3c0.8-1.5,1.7-2.9,2.9-4.2c1.2-1.3,2.3-2.1,3.3-2.4c1-0.3,2-0.2,2.9,0.5c0.3,0.2,0.6,0.5,0.7,0.7
	c0.1,0.3,0.2,0.4,0,0.5C100.3,9.1,100.2,9.1,100,9.1L100,9.1z M111.2,2.9c-0.1,0.3-0.6,1.3-1.6,3.1c-0.2,0.3-0.4,0.7-0.7,1.3
	l-0.3,0.7l-0.4,0.7c-0.6,1.1-1.1,2.1-1.5,2.9c-2.6,5-3.8,7.6-3.5,7.8c0.3,0.1,0.9-0.4,2-1.7c0.4-0.4,0.8-0.9,1.2-1.5
	c0.2-0.2,0.3-0.4,0.5-0.6c0.1-0.1,0.1-0.2,0.2-0.2c0-0.1,0.1-0.1,0.1-0.2l0.1-0.1c0.3-0.3,0.6-0.2,0.9,0.1c0.3,0.3,0.4,0.6,0.1,0.9
	c-0.1,0.1-0.2,0.2-0.3,0.3l-0.3,0.4c-0.3,0.3-0.5,0.6-0.7,0.9c-0.6,0.7-1.2,1.4-1.7,1.8c-1.5,1.4-2.6,1.9-3.5,1.6
	c-1-0.4-1.6-1-1.9-1.7c-0.3-1.1,0.1-2.8,1.4-5.3c0.6-1,1.8-3.4,3.7-7c2-3.9,3.1-6.1,3.3-6.6c0.1-0.2,0.3-0.3,0.7-0.2
	c0.3,0.1,0.7,0.3,1,0.6C111.1,1.4,111.5,2.1,111.2,2.9L111.2,2.9z M117.3,2.9c-0.1,0.3-0.6,1.3-1.6,3.1c-0.2,0.3-0.4,0.7-0.7,1.3
	l-0.3,0.7l-0.4,0.7c-0.6,1.1-1.1,2.1-1.5,2.9c-2.6,5-3.8,7.6-3.5,7.8c0.3,0.1,0.9-0.4,2-1.7c0.4-0.4,0.8-0.9,1.2-1.5
	c0.2-0.2,0.3-0.4,0.5-0.6c0.1-0.1,0.1-0.2,0.2-0.2c0-0.1,0.1-0.1,0.1-0.2l0.1-0.1c0.3-0.3,0.6-0.2,0.9,0.1c0.3,0.3,0.4,0.6,0.1,0.9
	c-0.1,0.1-0.2,0.2-0.3,0.3l-0.3,0.4c-0.3,0.3-0.5,0.6-0.7,0.9c-0.6,0.7-1.2,1.4-1.7,1.8c-1.5,1.4-2.6,1.9-3.5,1.6
	c-1-0.4-1.6-1-1.9-1.7c-0.3-1.1,0.1-2.8,1.4-5.3c0.6-1,1.8-3.4,3.7-7c2-3.9,3.1-6.1,3.3-6.6c0.1-0.2,0.3-0.3,0.7-0.2
	c0.3,0.1,0.7,0.3,1,0.6C117.2,1.4,117.5,2.1,117.3,2.9L117.3,2.9z M119.6,10.2c-0.1,0.3-0.4,0.9-1,2c-0.1,0.2-0.2,0.4-0.4,0.7
	l-0.4,0.7c-0.3,0.6-0.6,1.1-0.8,1.5c-1.3,2.6-1.9,4-1.6,4.1c0.3,0.1,0.9-0.4,2-1.7c0.4-0.4,0.8-0.9,1.2-1.5c0.2-0.2,0.3-0.4,0.5-0.6
	c0.1-0.1,0.1-0.2,0.2-0.2c0.1-0.1,0.1-0.1,0.1-0.2c0-0.1,0.1-0.1,0.1-0.1c0.1-0.1,0.3-0.1,0.4-0.1c0.2,0,0.3,0.1,0.4,0.2
	c0.4,0.3,0.4,0.6,0.1,0.9c-0.1,0.1-0.2,0.2-0.3,0.3l-0.3,0.4c-0.3,0.3-0.5,0.6-0.7,0.9c-0.6,0.7-1.2,1.4-1.7,1.9
	c-1.5,1.4-2.6,1.9-3.5,1.6c-1-0.4-1.6-1-1.9-1.7c-0.3-1.1,0.1-2.8,1.4-5.3l0.2-0.3l0.2-0.4c0.2-0.3,0.3-0.6,0.4-0.8
	c0.4-0.7,0.7-1.3,1-1.8c0.8-1.5,1.3-2.5,1.4-3c0.1-0.2,0.3-0.3,0.7-0.2c0.3,0.1,0.7,0.3,1,0.6C119.5,8.7,119.8,9.4,119.6,10.2
	L119.6,10.2z M122.3,4.7c0,0.2-0.3,0.6-0.8,1.2c-0.3,0.3-0.4,0.6-0.6,0.8c-0.2,0.3-0.4,0.6-0.5,1c-0.2,0.1-0.4,0-0.8-0.3
	c-0.1-0.1-0.3-0.3-0.4-0.4c-0.1-0.1-0.2-0.3-0.3-0.4c-0.2-0.4-0.1-1.1,0.2-2l0.2-0.5l0.2-0.5c0.2-0.4,0.3-0.8,0.3-1.1
	c0-0.1,0.1-0.1,0.4-0.1c0.3,0.1,0.6,0.3,0.9,0.5c0.4,0.3,0.7,0.5,0.9,0.8C122.3,4.1,122.4,4.4,122.3,4.7L122.3,4.7z M127.9,9.1
	c-1.2,0.2-2.5,1.3-3.8,3.5c-0.8,1.3-1.2,2.3-1,2.8c0.2,0.5,0.9,0.8,2.1,0.7c0.8,0,1.4,0.2,1.8,0.7c0.4,0.5,0.3,1.1-0.1,1.7
	c-0.5,0.7-1.2,1.3-2.2,1.7c-1.2,0.5-2.5,0.7-3.9,0.5h0c-0.4-0.1-0.8-0.2-1.2-0.6c-0.6-0.6-0.7-1.2-0.4-1.8c0.1-0.2,0.3-0.5,0.5-0.8
	l0.3-0.3l0.3-0.3c0.2-0.1,0.3-0.2,0.5-0.1c0.1,0,0.3,0.1,0.4,0.3c0.1,0.2,0.1,0.3,0.2,0.5c0,0.2,0,0.3-0.1,0.4
	c-0.1,0.1-0.3,0.2-0.5,0.4c-0.2,0.2-0.3,0.4-0.3,0.5c0,0.3,0.2,0.4,0.6,0.5c0.7,0,1.5-0.4,2.2-1.1c0.7-0.7,0.5-1.2-0.6-1.2
	c-0.6,0-1.1-0.1-1.5-0.3c-0.6-0.2-1-0.5-1.3-0.9c-0.7-1.1-0.3-2.9,1.2-5.4c0.5-0.8,1.2-1.5,1.9-2.1c0.6-0.4,1.2-0.7,1.9-1
	c0.7-0.2,1.4-0.2,2,0c0.5,0.2,1,0.5,1.3,0.8c0.2-0.4,0.4-0.8,0.6-1.3c0-0.3,0.2-0.3,0.6,0c0.4,0.3,0.6,0.6,0.7,1
	c0,0.3-0.5,1-1.4,2.2l-0.6,0.7l-0.6,0.7c-0.4,0.5-0.7,0.9-0.9,1.2c-0.2,0.1-0.4-0.1-0.5-0.4c-0.1-0.1-0.1-0.3-0.1-0.4
	c0-0.1,0-0.3,0-0.3C126.9,10.6,127.5,9.8,127.9,9.1L127.9,9.1z M156.5,2.6c-0.2,0.4-0.5,0.8-0.8,1.3c0.5,0.2,1,0.5,1.4,0.9
	c0.5,0.4,0.7,0.8,0.7,1.1c-0.1,1-0.8,3.1-2,6.4c0.6,0.3,1.1,0.5,1.5,0.8c0.1,0.1,0.1,0.2,0.1,0.3c-0.1,0.1-0.1,0.2-0.2,0.3
	c-0.1,0.1-0.2,0.2-0.3,0.2c-0.1,0-0.2,0-0.2,0l-0.6-0.4l-0.6-0.3l-0.5,1.4l-0.5,1.4c-0.4,1.1-0.7,2-1,2.7c-0.7,1.9-1.1,3.4-1.2,4.3
	c0,0.5-0.4,0.5-1.4,0c-0.9-0.4-1.4-0.9-1.4-1.3c0.1-0.8,0.4-2.1,1-4c0.2-0.7,0.5-1.6,0.9-2.7l0.5-1.4l0.5-1.4
	c-0.4-0.1-1-0.1-1.7-0.2l-0.6,0h-0.6c-0.5,0.5-0.9,1-1.2,1.4c-0.5,0.6-1,1.1-1.5,1.7c-1.2,1.4-2.4,2.6-3.5,3.6
	c-3,2.8-5.4,4.4-7.3,4.7c-0.2,0-0.3-0.1-0.4-0.2c-0.1-0.1-0.1-0.4-0.2-0.6c0-0.2,0-0.5,0.1-0.7c0-0.2,0.1-0.3,0.2-0.2
	c1.6-0.3,3.7-1.6,6.5-4c1-0.9,2.1-1.9,3.2-3c0.9-0.9,1.7-1.7,2.4-2.5c-1.9,0.2-3.7,0.7-5.2,1.4c-1.7,0.7-3,1.7-3.8,2.8l-0.1,0.1
	l-0.1,0.1c0,0.1-0.1,0.1-0.1,0.1c-0.1,0-0.1,0-0.2-0.1c-0.9-1.1-1-2.1-0.1-2.9c2.2-2,5.8-2.9,10.7-2.7c2.4-2.9,4.5-6,6.4-9.4
	c0.1-0.3,0.4-0.2,0.9,0.1C156.4,2,156.6,2.3,156.5,2.6L156.5,2.6z M154.3,5.9c-0.5,0.6-1,1.3-1.7,2.2c-0.2,0.3-0.5,0.6-0.8,1
	l-0.4,0.4c-0.1,0.2-0.2,0.3-0.3,0.4c-0.4,0.5-0.7,0.9-1,1.3c0.7,0.1,1.5,0.2,2.4,0.4C153.4,8.9,154,7,154.3,5.9L154.3,5.9z
	 M164.4,4.5c0,0.2-0.2,0.6-0.5,1.2L163.7,6l-0.2,0.4L163,7.3c0,0.1-0.1,0.1-0.1,0.1l0.3,0.1l0.3,0.1c0.2,0.1,0.5,0.2,0.7,0.3
	c0.5,0.3,0.9,0.6,1.3,0.8c1,0.8,1.3,1.5,1,2.3c-0.1,0.3-0.4,0.9-0.9,1.8l-0.3,0.6l-0.4,0.7c-0.3,0.5-0.6,1-0.7,1.3
	c-1.2,2.3-1.7,3.5-1.4,3.6c0.3,0.1,1-0.4,2-1.7c0.4-0.4,0.8-0.9,1.2-1.5c0.2-0.2,0.3-0.4,0.5-0.6c0.1-0.1,0.1-0.2,0.2-0.2
	c0-0.1,0.1-0.1,0.1-0.2l0.1-0.1l0.1-0.1c0.3-0.2,0.6-0.2,0.9,0.1c0.4,0.3,0.4,0.6,0.1,0.9c-0.1,0.1-0.1,0.2-0.3,0.3l-0.3,0.4
	c-0.3,0.3-0.5,0.6-0.7,0.9c-0.6,0.7-1.2,1.4-1.7,1.9c-1.5,1.4-2.6,1.9-3.5,1.6c-1-0.4-1.6-1-1.8-1.7c-0.4-1,0.1-2.8,1.4-5.3
	c0.1-0.3,0.3-0.7,0.6-1.1l0.3-0.6l0.3-0.6c0.6-1,1-1.8,1.2-2.3c-0.4-0.3-0.8-0.5-1.1-0.6c-1.2,2.8-2.8,5.4-4.8,7.9
	c-0.3,0.4-0.6,0.4-1,0.1c-0.4-0.3-0.4-0.6-0.1-1c1.9-2.5,3.5-5.1,4.7-7.8c0,0,0,0,0,0c-0.3-0.2-0.5-0.4-0.8-0.6
	c-0.3-0.2-0.4-0.3-0.5-0.4c-0.2-0.4,0-1.2,0.5-2.3l0.3-0.7l0.3-0.7c0.2-0.5,0.3-0.9,0.4-1.2c0-0.1,0.2-0.1,0.5,0
	c0.3,0.1,0.7,0.3,1.1,0.5c0.4,0.3,0.8,0.6,1,0.9C164.4,3.8,164.5,4.1,164.4,4.5L164.4,4.5z M169.9,18.1c0.1,0.8,0.6,1.2,1.3,1.2
	c0.4,0,1.1-0.3,1.9-0.8c0.8-0.6,1.5-1.2,2-1.8c0,0,0.1-0.1,0.2-0.3c0.1-0.1,0.1-0.1,0.2-0.3l0.2-0.3c0.5-0.5,0.7-0.8,0.7-0.8
	c0.1-0.2,0.3-0.3,0.5-0.3c0.2,0,0.4,0,0.5,0.2c0.3,0.3,0.4,0.6,0.1,0.9c-0.1,0.1-0.2,0.2-0.3,0.4l-0.2,0.2l-0.2,0.2
	c-1.4,1.9-2.9,3.2-4.5,3.9c-1.5,0.7-2.8,0.7-3.9,0.1c-1.1-0.5-1.8-1.5-2-3c-0.2-1.6,0.2-3.4,1.3-5.5c0.7-1.3,1.5-2.4,2.5-3.3
	c0.8-0.7,1.7-1.2,2.5-1.5c0.7-0.2,1.3-0.2,2,0c0.5,0.2,1,0.5,1.3,0.8c0.4-0.7,0.6-1.1,0.7-1.3c0-0.3,0.2-0.3,0.6,0
	c0.4,0.3,0.6,0.6,0.7,1c0,0.2-0.2,0.7-0.8,1.6c-0.6,1-1.2,2-2,3C173.2,15.5,171.4,17.3,169.9,18.1L169.9,18.1z M175.7,9.1
	c-1.5,0.3-3.1,1.9-4.8,5c-0.5,0.8-0.8,1.6-0.9,2.3c0.9-0.6,1.9-1.7,3-3.3C174,11.9,174.9,10.5,175.7,9.1L175.7,9.1z M186.4,9.1
	c-0.9,0.1-2,0.8-3.4,2.3c-1.1,1.2-2.2,2.7-3.2,4.4c-0.9,1.6-1.4,2.7-1.4,3.2c0,0.6,0.6,0.2,1.8-1.2c0.9-1,1.9-2.2,3-3.7
	c0.4-0.5,0.9-1.2,1.4-1.9l0.7-1l0.7-1l0.2-0.4c0-0.1,0.1-0.2,0.1-0.3c0.1-0.2,0.3-0.3,0.7-0.2c0.3,0.1,0.7,0.3,1,0.5
	c0.9,0.7,1.2,1.5,1,2.3c-0.1,0.4-0.4,1-0.8,1.7c-0.1,0.3-0.3,0.6-0.6,1l-0.6,1c-1.2,2-1.6,3.1-1.3,3.3c0.3,0.1,1-0.4,2-1.7
	c0.4-0.4,0.8-0.9,1.2-1.5c0.2-0.2,0.3-0.4,0.5-0.6c0.1-0.1,0.1-0.2,0.2-0.2l0.1-0.1l0.1-0.1l0.1-0.1c0.3-0.2,0.6-0.2,0.9,0.1
	c0.3,0.3,0.4,0.6,0.1,0.9c-0.1,0.1-0.1,0.2-0.3,0.3l-0.3,0.4c-0.3,0.3-0.5,0.6-0.7,0.9c-0.6,0.7-1.2,1.4-1.7,1.9
	c-1.5,1.4-2.6,1.9-3.5,1.6c-1-0.4-1.6-1-1.8-1.7c-0.2-0.5-0.2-1.1,0-1.9c-1.2,1.5-2.2,2.5-3.1,3.1c-0.8,0.5-1.5,0.7-2,0.5
	c-3.1-0.9-3-3.8,0.3-8.7c1.8-2.6,3.6-4.2,5.4-4.8c1-0.3,2-0.2,2.9,0.5c0.3,0.2,0.6,0.5,0.7,0.7c0.1,0.2,0.2,0.4,0,0.4
	C186.7,9.1,186.5,9.1,186.4,9.1L186.4,9.1z"/>
<path class="st5" d="M68.1,37.3c0,0.5-0.2,0.9-0.6,1.1c-0.3,0.2-0.7,0.2-1,0.2h-1.6v-2.8h1.7c0.4,0,0.7,0.1,1,0.3
	C67.9,36.4,68.1,36.8,68.1,37.3L68.1,37.3z M63.9,34.9c-0.1,0-0.1,0.1-0.1,0.1v6.8c0,0.1,0.1,0.1,0.1,0.1h0.9c0.1,0,0.1-0.1,0.1-0.1
	v-2.2h1.8c0.6,0,1.2-0.1,1.6-0.5c0.6-0.4,0.9-1.1,0.9-1.9c0-0.8-0.3-1.5-0.9-1.9c-0.5-0.4-1.1-0.5-1.7-0.5H63.9L63.9,34.9z
	 M70.5,34.9c-0.1,0-0.1,0.1-0.1,0.1v6.8c0,0.1,0.1,0.1,0.1,0.1h5c0.1,0,0.1-0.1,0.1-0.1v-0.8c0-0.1-0.1-0.1-0.1-0.1h-3.9v-2H75
	c0.1,0,0.1-0.1,0.1-0.1V38c0-0.1-0.1-0.1-0.1-0.1h-3.4v-2h3.9c0.1,0,0.1-0.1,0.1-0.1V35c0-0.1-0.1-0.1-0.1-0.1H70.5L70.5,34.9z
	 M78.2,38.8c0.4,0,0.7,0,1,0.2c0.4,0.2,0.6,0.5,0.6,1c0,0.4-0.2,0.7-0.4,0.9c-0.2,0.2-0.6,0.3-1,0.3c-0.5,0-0.9-0.1-1.4-0.5
	c-0.1-0.1-0.1-0.1-0.2,0l-0.3,0.7c0,0.1,0,0.1,0.1,0.2c0.5,0.3,1.1,0.5,2,0.5c0.7,0,1.3-0.2,1.7-0.5c0.5-0.4,0.7-0.9,0.7-1.5
	c0-0.9-0.5-1.5-1.4-1.8c0.8-0.3,1.1-0.9,1.1-1.6c0-0.5-0.2-1-0.6-1.3c-0.4-0.3-0.9-0.5-1.5-0.5c-0.9,0-1.5,0.3-2,0.6
	c-0.1,0.1-0.1,0.1-0.1,0.2l0.3,0.6c0,0.1,0.1,0.1,0.2,0c0.4-0.3,0.8-0.5,1.4-0.5c0.3,0,0.6,0.1,0.8,0.3c0.2,0.2,0.4,0.5,0.4,0.8
	c0,0.4-0.2,0.7-0.5,0.9c-0.3,0.2-0.6,0.2-1,0.2h-0.8c-0.1,0-0.1,0.1-0.1,0.1v0.7c0,0.1,0.1,0.1,0.1,0.1H78.2L78.2,38.8z M87.1,41.9
	c0,0.1,0.1,0.1,0.1,0.1h0.9c0.1,0,0.1-0.1,0.1-0.1V35c0-0.1-0.1-0.1-0.1-0.1h-0.9c-0.1,0-0.1,0.1-0.1,0.1v0.8l-3.8,3.9V35
	c0-0.1-0.1-0.1-0.1-0.1h-0.9c-0.1,0-0.1,0.1-0.1,0.1v6.8c0,0.1,0.1,0.1,0.1,0.1h0.9c0.1,0,0.1-0.1,0.1-0.1v-0.7l3.8-3.9V41.9
	L87.1,41.9z M94.8,34.9c-0.1,0-0.1,0.1-0.1,0.1v2.9h-3.7V35c0-0.1-0.1-0.1-0.1-0.1h-0.9c-0.1,0-0.1,0.1-0.1,0.1v6.8
	c0,0.1,0.1,0.1,0.1,0.1h0.9c0.1,0,0.1-0.1,0.1-0.1V39h3.7v2.9c0,0.1,0.1,0.1,0.1,0.1h0.9c0.1,0,0.1-0.1,0.1-0.1V35
	c0-0.1-0.1-0.1-0.1-0.1H94.8L94.8,34.9z M104.5,38.5c0-2.1-1.7-3.7-3.8-3.7c-2,0-3.8,1.5-3.8,3.7c0,2.1,1.7,3.6,3.8,3.6
	C102.8,42.1,104.5,40.6,104.5,38.5L104.5,38.5z M103.3,38.5c0,1.4-1.1,2.6-2.5,2.6c-1.4,0-2.5-1.1-2.5-2.6c0-1.4,1.1-2.6,2.5-2.6
	C102.2,35.9,103.3,37,103.3,38.5L103.3,38.5z M111,40.1c0-0.9-0.5-1.6-1.5-1.8v0c0.6-0.3,0.9-0.8,0.9-1.5c0-0.6-0.3-1.1-0.7-1.4
	c-0.5-0.3-1.1-0.4-1.6-0.4h-2.2c-0.1,0-0.1,0.1-0.1,0.1v6.8c0,0.1,0.1,0.1,0.1,0.1h2.8C109.8,42,111,41.4,111,40.1L111,40.1z
	 M109.3,36.9c0,0.5-0.2,0.8-0.5,0.9c-0.2,0.1-0.5,0.1-0.8,0.1h-1.1v-2.1h1.2c0.3,0,0.5,0.1,0.7,0.2
	C109.1,36.2,109.3,36.5,109.3,36.9L109.3,36.9z M109.8,39.9c0,0.5-0.3,0.8-0.6,1c-0.2,0.1-0.5,0.1-0.8,0.1h-1.5v-2.2h1.3
	c0.5,0,0.9,0,1.1,0.2C109.7,39.2,109.8,39.6,109.8,39.9L109.8,39.9z M118.9,34.9c-0.1,0-0.1,0.1-0.1,0.1v6.8c0,0.1,0.1,0.1,0.1,0.1
	h0.9c0.1,0,0.1-0.1,0.1-0.1V35c0-0.1-0.1-0.1-0.1-0.1H118.9L118.9,34.9z M112.2,41.9c0,0.1,0.1,0.1,0.1,0.1h2.7
	c0.5,0,1.1-0.1,1.5-0.3c0.6-0.3,1-0.9,1-1.7c0-0.9-0.4-1.5-1-1.7c-0.5-0.2-1.1-0.3-1.6-0.3h-1.5V35c0-0.1-0.1-0.1-0.1-0.1h-0.9
	c-0.1,0-0.1,0.1-0.1,0.1V41.9L112.2,41.9z M116.4,39.9c0,0.4-0.2,0.7-0.5,0.9c-0.3,0.1-0.6,0.2-0.9,0.2h-1.5v-2.2h1.4
	c0.4,0,0.7,0.1,0.9,0.2C116.2,39.2,116.4,39.5,116.4,39.9L116.4,39.9z M121.5,34.9c-0.1,0-0.1,0.1-0.1,0.1v6.8
	c0,0.1,0.1,0.1,0.1,0.1h5c0.1,0,0.1-0.1,0.1-0.1v-0.8c0-0.1-0.1-0.1-0.1-0.1h-3.9v-2h3.4c0.1,0,0.1-0.1,0.1-0.1V38
	c0-0.1-0.1-0.1-0.1-0.1h-3.4v-2h3.9c0.1,0,0.1-0.1,0.1-0.1V35c0-0.1-0.1-0.1-0.1-0.1H121.5L121.5,34.9z M136.2,42
	c0.1,0,0.1-0.1,0.1-0.1V35c0-0.1-0.1-0.1-0.1-0.1h-5.7c-0.1,0-0.1,0.1-0.1,0.1v6.8c0,0.1,0.1,0.1,0.1,0.1h0.9c0.1,0,0.1-0.1,0.1-0.1
	v-5.9h3.6v5.9c0,0.1,0.1,0.1,0.1,0.1H136.2L136.2,42z M145,38.5c0-2.1-1.7-3.7-3.8-3.7c-2,0-3.8,1.5-3.8,3.7c0,2.1,1.7,3.6,3.8,3.6
	C143.3,42.1,145,40.6,145,38.5L145,38.5z M143.8,38.5c0,1.4-1.1,2.6-2.5,2.6s-2.5-1.1-2.5-2.6c0-1.4,1.1-2.6,2.5-2.6
	S143.8,37,143.8,38.5L143.8,38.5z M150.7,34.9c-0.1,0-0.2,0-0.3,0.1l-2.4,2.9h-0.6V35c0-0.1-0.1-0.1-0.1-0.1h-0.9
	c-0.1,0-0.1,0.1-0.1,0.1v6.8c0,0.1,0.1,0.1,0.1,0.1h0.9c0.1,0,0.1-0.1,0.1-0.1V39h0.6l2.4,2.9c0.1,0.1,0.1,0.1,0.3,0.1h1.1
	c0.1,0,0.1-0.1,0.1-0.2l-2.9-3.4l2.8-3.3c0.1-0.1,0.1-0.2-0.1-0.2H150.7L150.7,34.9z M157.2,37.3c0,0.5-0.2,0.9-0.6,1.1
	c-0.3,0.2-0.7,0.2-1,0.2H154v-2.8h1.7c0.4,0,0.7,0.1,1,0.3C157,36.4,157.2,36.8,157.2,37.3L157.2,37.3z M153,34.9
	c-0.1,0-0.1,0.1-0.1,0.1v6.8c0,0.1,0.1,0.1,0.1,0.1h0.9c0.1,0,0.1-0.1,0.1-0.1v-2.2h1.8c0.6,0,1.2-0.1,1.6-0.5
	c0.6-0.4,0.9-1.1,0.9-1.9c0-0.8-0.3-1.5-0.9-1.9c-0.5-0.4-1.1-0.5-1.7-0.5H153L153,34.9z M166.1,34.9c-0.1,0-0.1,0.1-0.1,0.1v6.8
	c0,0.1,0.1,0.1,0.1,0.1h0.9c0.1,0,0.1-0.1,0.1-0.1V35c0-0.1-0.1-0.1-0.1-0.1H166.1L166.1,34.9z M159.5,41.9c0,0.1,0.1,0.1,0.1,0.1
	h2.7c0.5,0,1.1-0.1,1.5-0.3c0.6-0.3,1-0.9,1-1.7c0-0.9-0.4-1.5-1-1.7c-0.5-0.2-1.1-0.3-1.6-0.3h-1.5V35c0-0.1-0.1-0.1-0.1-0.1h-0.9
	c-0.1,0-0.1,0.1-0.1,0.1V41.9L159.5,41.9z M163.6,39.9c0,0.4-0.2,0.7-0.5,0.9c-0.3,0.1-0.6,0.2-0.9,0.2h-1.5v-2.2h1.4
	c0.4,0,0.7,0.1,0.9,0.2C163.4,39.2,163.6,39.5,163.6,39.9L163.6,39.9z M168.1,34.9c-0.1,0-0.1,0.1-0.1,0.1v0.8
	c0,0.1,0.1,0.1,0.1,0.1h2.3v5.9c0,0.1,0.1,0.1,0.1,0.1h0.9c0.1,0,0.1-0.1,0.1-0.1v-5.9h2.3c0.1,0,0.1-0.1,0.1-0.1V35
	c0-0.1-0.1-0.1-0.1-0.1H168.1L168.1,34.9z M179.7,41.9c0,0.1,0.1,0.1,0.1,0.1h0.9c0.1,0,0.1-0.1,0.1-0.1V35c0-0.1-0.1-0.1-0.1-0.1
	h-0.9c-0.1,0-0.1,0.1-0.1,0.1v0.8l-3.8,3.9V35c0-0.1-0.1-0.1-0.1-0.1h-0.9c-0.1,0-0.1,0.1-0.1,0.1v6.8c0,0.1,0.1,0.1,0.1,0.1h0.9
	c0.1,0,0.1-0.1,0.1-0.1v-0.7l3.8-3.9V41.9L179.7,41.9z M182.8,38.9c0.3,0.2,0.6,0.3,0.9,0.3l-1.8,2.6c0,0.1-0.1,0.1-0.1,0.1
	c0,0.1,0,0.1,0.1,0.1h1c0.1,0,0.2,0,0.3-0.1l1.7-2.5h1.6v2.5c0,0.1,0.1,0.1,0.1,0.1h0.9c0.1,0,0.1-0.1,0.1-0.1V35
	c0-0.1-0.1-0.1-0.1-0.1h-2.9c-0.7,0-1.3,0.1-1.8,0.4c-0.5,0.4-0.8,1-0.8,1.8C182,37.9,182.2,38.4,182.8,38.9L182.8,38.9z
	 M186.5,35.9v2.5h-1.8c-0.4,0-0.7-0.1-1-0.2c-0.3-0.2-0.5-0.5-0.5-1c0-0.5,0.2-0.8,0.5-1c0.3-0.2,0.6-0.2,1-0.2H186.5L186.5,35.9z"
	/>
<polygon class="st2" points="63.4,27.1 187.5,27.1 187.5,28.5 63.4,28.5 63.4,27.1 "/>
</svg>
